<?xml version="1.0" encoding="UTF-8" standalone="no"?>
<svg
   xmlns:dc="http://purl.org/dc/elements/1.1/"
   xmlns:cc="http://creativecommons.org/ns#"
   xmlns:rdf="http://www.w3.org/1999/02/22-rdf-syntax-ns#"
   xmlns:svg="http://www.w3.org/2000/svg"
   xmlns="http://www.w3.org/2000/svg"
   viewBox="0 0 384 384"
   height="384"
   width="384"
   xml:space="preserve"
   id="svg2"
   version="1.1"><metadata
     id="metadata8"><rdf:RDF><cc:Work
         rdf:about=""><dc:format>image/svg+xml</dc:format><dc:type
           rdf:resource="http://purl.org/dc/dcmitype/StillImage" /></cc:Work></rdf:RDF></metadata><defs
     id="defs6" /><g
     transform="matrix(1.3333333,0,0,-1.3333333,0,384)"
     id="g10"><g
       transform="scale(0.1)"
       id="g12"><path
         id="path14"
         style="fill:#c8c754;fill-opacity:1;fill-rule:nonzero;stroke:none"
         d="M 2880,1440 C 2880,644.711 2235.29,0 1440,0 644.711,0 0,644.711 0,1440 c 0,795.29 644.711,1440 1440,1440 795.29,0 1440,-644.71 1440,-1440" /><path
         id="path16"
         style="fill:#0d4520;fill-opacity:1;fill-rule:nonzero;stroke:none"
         d="M 2820.33,1440 C 2820.33,677.66 2202.34,59.6719 1440,59.6719 677.664,59.6719 59.668,677.66 59.668,1440 c 0,762.34 617.996,1380.33 1380.332,1380.33 762.34,0 1380.33,-617.99 1380.33,-1380.33" /><path
         id="path18"
         style="fill:#ffffff;fill-opacity:1;fill-rule:nonzero;stroke:none"
         d="m 2359.14,1520.4 c -6.52,54.04 -54.08,70.87 -96.01,84 -121.38,38.19 -172.67,-9.37 -208.09,-13.13 38.2,43.79 28.87,116.66 -21.4,125.08 -94.35,14.89 -68.22,-86.85 -45.77,-134.41 14.93,-29.89 33.55,-79.32 80.2,-75.52 56.96,4.65 48.41,51.3 130.64,57.78 0,0 102.59,-7.5 100.86,-40.17 -3.8,-48.48 -57.06,-66.19 -91.5,-78.26 -51.32,-16.86 -110.21,8.27 -152.14,-39.29 -12.96,-15.8 -23.35,-35.41 -18.73,-53.12 4.68,-17.78 6.72,-10.28 63.5,-14.86 -31.75,-39.28 -50.37,-99.02 -51.29,-151.3 -1.76,-140.89 -37.32,-249.989 -23.34,-298.598 68.19,82.199 67.17,206.188 78.43,305.178 6.48,51.39 25.11,108.28 50.42,145.53 28.9,43.87 83.99,45.8 120.29,72.77 34.54,25.24 88.58,68.15 83.93,108.32" /><path
         id="path20"
         style="fill:#ffffff;fill-opacity:1;fill-rule:nonzero;stroke:none"
         d="m 1099.47,1323.37 c -18.62,32.74 -66.22,26.22 -88.61,39.28 -36.262,23.38 -34.465,73.75 -0.88,104.46 43.9,40.2 157.75,-88.61 132.54,-189.33 -11.23,-3.7 -16.79,2.71 -43.05,45.59 z m 123.25,-207.96 c 38.3,58.73 78.46,186.65 55.12,240.7 -37.31,14.96 -82.16,43.93 -109.27,84.98 -27.07,39.14 -42.84,82.94 -90.4,96 -31.76,11.3 -67.31,4.68 -93.361,-9.33 -41.965,-24.22 -52.176,-81.99 -58.758,-127.72 -2.746,-94.24 14.859,-233.33 55.906,-320.99 24.293,-65.34 80.263,-173.589 150.183,-275.261 -19.54,161.41 70.02,267.731 90.58,311.621" /><path
         id="path22"
         style="fill:#ffffff;fill-opacity:1;fill-rule:nonzero;stroke:none"
         d="m 1583.8,683.391 c -47.39,-4.68 -99.36,-15.77 -141.29,-14.961 -41.93,-0.809 -93.97,10.281 -141.33,14.961 -7.6,0.847 -13.12,-4.68 -13.12,-4.68 -27.65,-58.992 131.11,-91.59 153.98,-90.539 22.89,-1.051 182.51,31.547 154.89,90.539 0,0 -5.63,5.527 -13.13,4.68" /><path
         id="path24"
         style="fill:#ffffff;fill-opacity:1;fill-rule:nonzero;stroke:none"
         d="m 858.883,1716.35 c -49.531,-8.42 -58.824,-81.29 -21.578,-125.08 -34.399,3.76 -85.758,51.32 -207.071,13.13 -41.929,-13.13 -89.558,-29.96 -96.109,-84 -4.68,-40.17 49.465,-83.08 83.965,-108.32 35.515,-26.97 91.492,-28.9 120.394,-72.77 24.223,-37.25 43.797,-94.14 50.446,-145.53 11.129,-98.99 9.297,-222.979 78.367,-305.178 12.957,48.609 -22.461,157.708 -23.274,298.598 -1.121,52.28 -20.66,112.02 -51.363,151.3 56.86,4.58 57.774,-2.92 62.457,14.86 5.528,17.71 -5.597,37.32 -18.691,53.12 -41.047,47.56 -99.774,22.43 -152.117,39.29 -34.469,12.07 -87.59,29.78 -90.442,78.26 -1.832,32.67 100.824,40.17 100.824,40.17 82.028,-6.48 72.664,-53.13 129.586,-57.78 46.68,-3.8 66.289,45.63 81.286,75.52 22.39,47.56 48.441,149.3 -46.68,134.41" /><path
         id="path26"
         style="fill:#ffffff;fill-opacity:1;fill-rule:nonzero;stroke:none"
         d="m 1442.95,1200.19 v 0.1 c -0.37,0 -0.64,-0.06 -0.98,-0.06 l -0.85,0.06 v -0.1 c -44.58,-1.02 -68.7,-38.67 -110.12,-82.03 -71.81,-78.33 -219.32,-273.32 -111.98,-365.73 47.56,-41.051 110.15,-69.039 195.94,-42.879 21.48,14.859 9.3,58.719 -1.83,78.429 -40.16,52.18 -102.65,31.579 -120.39,57.739 -16.86,25.172 -5.6,44.883 4.64,57.812 14.93,18.649 39.15,14.039 59.71,8.438 36.44,-8.239 61.2,-23.508 84.03,-45.828 v -1.7 c 0.31,0.309 0.61,0.508 0.85,0.821 0.34,-0.313 0.61,-0.512 0.98,-0.821 v 1.731 c 21.95,22.359 47.63,37.629 83.96,45.797 19.61,5.601 44.78,10.211 58.83,-8.438 11.19,-12.929 21.44,-32.64 4.68,-57.812 -17.78,-26.16 -79.31,-5.559 -119.48,-57.739 -11.13,-19.71 -24.29,-63.57 -2.92,-78.429 86.88,-26.16 148.45,1.828 196.02,42.879 108.28,92.41 -39.15,287.4 -111.99,365.73 -40.4,43.32 -65.54,81.01 -109.1,82.03" /><path
         id="path28"
         style="fill:#ffffff;fill-opacity:1;fill-rule:nonzero;stroke:none"
         d="m 1868.39,1362.65 c -21.44,-13.06 -69.07,-6.54 -88.57,-39.28 -26.09,-42.88 -31.79,-49.29 -42.95,-45.59 -25.14,100.72 88.57,229.53 132.47,189.33 34.47,-30.71 35.49,-81.08 -0.95,-104.46 z m 26.12,165.11 c -26.12,14.01 -61.53,20.63 -93.22,9.33 -47.56,-13.06 -62.59,-56.86 -90.68,-96 -26.9,-41.05 -71.75,-70.02 -109.06,-84.98 -23.41,-54.05 16.86,-181.97 55.09,-240.7 21.41,-43.89 109.98,-150.211 91.39,-311.621 69.95,101.672 125.86,209.921 149.23,275.261 41.12,87.66 59.74,226.75 56.01,320.99 -5.56,45.73 -16.72,103.5 -58.76,127.72" /><path
         id="path30"
         style="fill:#ffffff;fill-opacity:1;fill-rule:nonzero;stroke:none"
         d="m 2441.78,2171.98 c -0.01,0 -0.01,0 -0.01,0 v 0.01 c 0,-0.01 0.01,-0.01 0.01,-0.01 z M 2212.7,470.07 l 0.02,0.012 c 0,-0.012 -0.01,-0.012 -0.01,-0.012 z m 202.62,195.918 c -43.36,-58.816 -93.16,-107.269 -156.36,-129.726 -39.59,-15.801 -81.11,-22.422 -121.62,-3.731 -31.89,13.981 -51.8,45.731 -57.5,81.25 -7.36,52.207 21.78,113.778 47.12,154.899 35.01,58.652 115.07,161.308 207.35,229.429 131.04,97.091 222.4,124.161 188.55,146.511 -23.62,15.88 -147.91,-52.31 -172.41,-65.33 C 2210.89,1007.43 2018.58,799.41 1995.98,645.359 1980.39,539.238 2085.26,459.578 2175.45,463.262 1875.91,222.738 1549.96,214.898 1440.65,212.34 l -0.78,0.031 -0.19,-0.031 c -110.23,2.59 -436.83,10.762 -735.239,250.93 90.27,-3.758 195.262,75.921 179.579,182.089 -22.629,154.051 -215.793,362.071 -354.27,433.931 -24.527,13.02 -148.992,81.21 -172.535,65.33 -33.926,-22.35 57.43,-49.42 188.48,-146.511 92.41,-68.121 171.586,-170.777 206.395,-229.429 26.39,-41.121 55.601,-102.692 48.07,-154.899 -5.699,-35.519 -26.359,-67.269 -57.504,-81.25 -40.57,-18.691 -81.926,-12.07 -122.465,3.731 -62.148,22.457 -112.152,70.91 -155.507,129.726 -81.961,111.071 -162.02,238.864 -202.661,374.112 34.805,-77.44 255.415,-401.178 353.418,-405.862 100.758,-5.597 -98.003,263.082 -234.683,375.032 -32.977,27.07 -70.699,58.86 -78.094,109.3 -5.836,36.43 13.059,60.62 48.918,62.45 54.719,1.91 196.996,-71.81 198.797,-69.07 -246.836,443.19 131.012,667.09 -25.379,764.18 -54.754,34.6 -170.504,0 -233.734,-9.33 581.527,343.41 683.16,0.91 858.484,-156.7 27.34,-25.24 150.76,0 174.33,28.91 31.11,37.31 93.26,171.72 22.6,260.33 -97.48,123.4 -489.653,477.55 -860.7,210.49 90.36,124.38 226.426,236.7 389.118,320.07 183.302,93.93 384.152,142.92 565.312,137.77 l 0.52,-0.01 0.52,0.01 c 355.67,9.89 753.55,-183.99 952.45,-457.81 -371.85,267 -763.01,-87.12 -861.56,-210.52 -69.68,-88.61 -8.41,-223.02 22.66,-260.33 24.5,-28.91 147.91,-54.15 175.26,-28.91 175.31,157.61 277.09,500.11 858.44,156.7 -63.06,9.33 -179.9,43.93 -233.56,9.33 -156.6,-97.09 220.37,-320.99 -25.55,-764.18 1.93,-2.74 144.28,70.98 198.86,69.07 35.83,-1.83 54.72,-26.02 49.02,-62.45 -7.53,-50.44 -46.17,-82.23 -78.23,-109.3 -136.67,-111.95 -335.44,-380.629 -235.6,-375.032 98.93,4.684 319.53,328.422 354.34,405.862 C 2577.47,904.852 2496.5,777.059 2415.32,665.988 Z M 1440.41,2745.36 C 721.082,2745.36 135.145,2159.33 135.145,1440 c 0,-718.441 585.937,-1305.359 1305.265,-1305.359 718.41,0 1304.44,586.918 1304.44,1305.359 0,719.33 -586.03,1305.36 -1304.44,1305.36" /></g></g></svg>